<?xml version="1.0" encoding="utf-8"?>
<!-- Generator: Adobe Illustrator 23.0.1, SVG Export Plug-In . SVG Version: 6.00 Build 0)  -->
<svg version="1.1" id="Layer_1" xmlns="http://www.w3.org/2000/svg" xmlns:xlink="http://www.w3.org/1999/xlink" x="0px" y="0px"
	 viewBox="0 0 612 792" style="enable-background:new 0 0 612 792;" xml:space="preserve">
<style type="text/css">
	.st0{fill:#FFFFFF;}
	.st1{fill:#CB2026;}
</style>
<g>
	<path class="st0" d="M453.5,424.91c7.29,5.02,6.95,11.51,4.69,18.28c-2.25,6.76-7.17,11.47-12.89,15.32
		c-13.96,9.37-29.97,12.25-46.19,12.71c-17.58,0.5-35.22-0.36-52.81-1.17c-19.84-0.92-39.65-2.51-59.48-3.69
		c-10.13-0.6-20.28-0.98-30.42-1.43c-17.47-0.78-34.94-1.76-52.42-2.24c-11.01-0.3-22.06-0.12-33.07,0.39
		c-8.49,0.4-16.98,1.42-25.41,2.63c-3.33,0.48-6.62,1.97-9.68,3.5c-3.3,1.65-4.35,5.09-2.68,7.58c0.44,0.66,1.83,1.35,2.45,1.12
		c8.78-3.25,18.03-3.36,27.13-3.77c14.04-0.64,28.1-0.68,42.16-0.72c14.27-0.04,28.55,0.21,42.82,0.34
		c24.34,0.22,48.67,0.54,73.01,0.62c29.41,0.1,58.83,1.28,88.21-0.99c15.19-1.17,29.92-4.12,43.65-11.01
		c8.4-4.22,15.48-9.78,19.19-18.82c2.39-5.82,1.44-12.64-2.69-16.58C464.65,422.75,459.51,422.58,453.5,424.91z M394.35,415.67
		c-1.5,0.54-2.64,0.83-3.66,1.35c-4.78,2.4-9.98,4.27-14.21,7.42c-9.27,6.91-8.72,22.17,2.59,26.94
		c15.64,6.59,30.61,4.32,44.24-4.99c9.75-6.66,11.49-17.68,5.49-27.43c-1.72-2.8-3.94-5.3-5.81-7.77c4.75-2.6,9.47-4.73,13.66-7.61
		c5.7-3.91,7.64-9.78,6.42-16.5c-1.09-6-5.32-9.31-10.86-10.82c-11.76-3.2-22.96-1.85-33.72,4.16c-12.83,7.17-14.07,22.73-6.6,31.27
		C392.79,412.73,393.36,414.06,394.35,415.67z M185.74,421.64c0.89-1.36,1.43-2.23,2.01-3.08c5.27-7.76,10.59-15.48,15.8-23.29
		c2.74-4.11,2.23-6.95-1.89-9.58c-1.76-1.12-3.94-1.72-6.01-2.15c-0.6-0.12-1.86,1.02-2.19,1.84c-1.07,2.66-1.43,5.69-2.82,8.14
		c-6.1,10.79-12.66,21.32-18.67,32.16c-4.07,7.33-7.72,14.92-11.05,22.62c-0.89,2.06-0.08,4.97,0.34,7.42
		c0.12,0.67,1.64,1.37,2.58,1.49c0.44,0.06,1.18-1.18,1.56-1.94c0.82-1.64,1.31-3.45,2.26-5.01c4.69-7.75,9.39-15.49,14.32-23.08
		c0.8-1.23,2.7-2.09,4.24-2.45c5.53-1.27,11.32-1.7,16.67-3.47c12.13-4,21.33-11.73,26.41-23.67c4.39-10.3,0.7-20.72-11.46-23.57
		c-17.26-4.04-33.26-1.02-47.59,9.48c-5.75,4.21-9.87,9.75-10.14,17.29c-0.22,6.06,3.93,9.87,10,9.61c1.88-0.08,2.35-0.79,2.36-2.55
		c0.01-2.56-0.13-5.25,0.57-7.66c4.69-16.01,16.44-24.62,33.12-24.53c9.61,0.05,13.5,5,11.39,14.44
		c-2.48,11.09-8.89,19.49-17.88,26.09C195.71,419.1,191.34,421.06,185.74,421.64z M238.93,416.7c-0.12-0.06-0.24-0.11-0.36-0.17
		c9.01-13.77,17.99-27.56,27.05-41.3c4.7-7.14,3.82-9.27-4.73-10.82c-0.53-0.1-1.08-0.1-1.61-0.16c-2.73-0.28-4.65,0.14-4.45,3.68
		c0.08,1.37-0.76,2.91-1.49,4.2c-10.24,18.1-20.7,36.08-30.73,54.29c-3.83,6.95-6.88,14.35-9.93,21.7
		c-0.85,2.04-0.69,4.64-0.43,6.92c0.1,0.89,1.76,1.61,2.7,2.4c0.61-0.79,1.38-1.5,1.8-2.37c1.31-2.71,2.14-5.71,3.79-8.18
		c4.55-6.79,9.14-13.6,14.27-19.96c4.28-5.31,9.33-9.99,14.04-14.95c0.28,0.24,0.57,0.48,0.85,0.72c-0.52,0.87-1.04,1.75-1.57,2.62
		c-4.93,8.09-10.17,16.01-14.65,24.35c-1.87,3.47-2.49,7.77-2.99,11.78c-0.41,3.35,1.55,5.08,4.91,5.69
		c4.44,0.8,8.31-0.45,11.79-3.15c7.45-5.8,12.83-13.35,17.83-21.21c1.52-2.38,2.89-4.85,4.67-7.86c-4.07,0-7.24,0-10.68,0
		c1.35,4.59-0.64,8.2-2.62,11.79c-3.27,5.92-7.27,11.25-12.76,15.28c-0.91,0.67-2.47,0.47-3.73,0.67c0.03-1.18,0.04-2.36,0.09-3.54
		c0.01-0.2,0.17-0.39,0.27-0.58c6.44-12.63,13.67-24.74,23.8-34.84c2.07-2.06,2-3.75-0.15-5.71c-3.71-3.37-9.14-3.79-14.03-0.34
		C246.02,410.39,242.56,413.67,238.93,416.7z M354.56,395.58c0.24,0.23,0.49,0.46,0.73,0.69c-1.08,3.12-2.04,6.29-3.27,9.35
		c-6.14,15.27-12.38,30.5-18.52,45.76c-0.4,0.99-0.27,2.19-0.39,3.3c1.04,0.02,2.11,0.22,3.11,0.04c3.81-0.68,7.57-1.93,11.39-2.13
		c5.19-0.27,7.94-2.84,9.74-7.44c6.45-16.53,13.07-33,19.62-49.49c2.96-7.46,5.91-14.92,9.17-23.14c-1.69,0.77-2.66,1.14-3.56,1.63
		c-15.21,8.33-30.4,16.7-45.63,24.98c-3.14,1.71-4.22,4.29-4.22,8.12C340.22,403.24,347.39,399.41,354.56,395.58z M297.69,440.44
		c0.29-0.49,0.51-0.94,0.8-1.35c2.75-3.86,5.88-7.51,8.17-11.62c2.22-4,4.04-8.36,5.2-12.78c1.3-4.95-1.7-8.11-6.79-8.23
		c-1.6-0.04-3.34,0.08-4.78-0.48c-4.14-1.62-7.83-0.71-11.4,1.46c-8.03,4.88-12.95,12.54-17.69,20.27c-4.22,6.89-7.03,14.36-7,22.6
		c0.02,4.67,2.39,6.84,7.07,6.84c5.48,0,9.86-2.74,14.15-5.69c4.51-3.09,7.74-8.83,14.63-7.03c0.44,0.12,1.07-0.2,1.52-0.48
		c2.57-1.56,5.36-2.88,7.61-4.83c4.38-3.78,7.67-8.49,10.85-14.04c-3.8,0-6.84,0-9.86,0C307.81,436.59,303.6,441.86,297.69,440.44z"
		/>
	<path d="M453.5,424.91c6.01-2.34,11.15-2.16,15.58,2.06c4.13,3.94,5.08,10.75,2.69,16.58c-3.71,9.04-10.79,14.61-19.19,18.82
		c-13.73,6.9-28.46,9.84-43.65,11.01c-29.38,2.27-58.8,1.09-88.21,0.99c-24.34-0.08-48.67-0.41-73.01-0.62
		c-14.27-0.13-28.55-0.38-42.82-0.34c-14.05,0.04-28.12,0.08-42.16,0.72c-9.1,0.41-18.35,0.52-27.13,3.77
		c-0.62,0.23-2.01-0.46-2.45-1.12c-1.67-2.49-0.62-5.92,2.68-7.58c3.06-1.53,6.34-3.02,9.68-3.5c8.42-1.22,16.91-2.24,25.41-2.63
		c11.01-0.51,22.05-0.69,33.07-0.39c17.48,0.47,34.95,1.45,52.42,2.24c10.14,0.45,20.29,0.82,30.42,1.43
		c19.83,1.18,39.64,2.77,59.48,3.69c17.59,0.82,35.23,1.68,52.81,1.17c16.22-0.46,32.24-3.34,46.19-12.71
		c5.73-3.84,10.64-8.55,12.89-15.32C460.45,436.42,460.79,429.94,453.5,424.91z"/>
	<path class="st1" d="M394.35,415.67c-0.99-1.62-1.56-2.94-2.47-3.97c-7.47-8.54-6.23-24.1,6.6-31.27
		c10.76-6.02,21.97-7.36,33.72-4.16c5.53,1.5,9.77,4.82,10.86,10.82c1.22,6.72-0.72,12.59-6.42,16.5c-4.2,2.88-8.92,5-13.66,7.61
		c1.87,2.47,4.09,4.97,5.81,7.77c6,9.75,4.26,20.77-5.49,27.43c-13.63,9.31-28.6,11.58-44.24,4.99
		c-11.31-4.76-11.87-20.02-2.59-26.94c4.23-3.15,9.43-5.02,14.21-7.42C391.71,416.5,392.85,416.21,394.35,415.67z M379.46,437.3
		c-0.02,6.59,2.8,11.31,8.22,13.34c6.55,2.45,12.91,1.95,18.86-1.84c6.01-3.82,7.87-11.83,3.56-17.45
		c-3.33-4.33-7.41-8.09-11.28-11.99c-0.56-0.57-1.83-0.87-2.64-0.69C388,420.48,379.16,427.48,379.46,437.3z M407.14,390.13
		c0.01,0.14,0.02,0.57,0.08,1c1.1,7.77,6.68,12.24,12.35,16.59c0.46,0.35,1.57,0.28,2.16-0.02c5.33-2.73,10.31-5.96,13-11.58
		c3.66-7.64,0.54-17.62-9.66-17.87c-2.55-0.06-5.18-0.14-7.65,0.39C411.1,380.01,407.32,384.34,407.14,390.13z"/>
	<path d="M185.74,421.64c5.6-0.58,9.97-2.54,13.92-5.43c8.99-6.6,15.4-15.01,17.88-26.09c2.11-9.44-1.77-14.39-11.39-14.44
		c-16.67-0.09-28.43,8.52-33.12,24.53c-0.7,2.41-0.57,5.1-0.57,7.66c0,1.76-0.48,2.47-2.36,2.55c-6.07,0.26-10.21-3.55-10-9.61
		c0.27-7.54,4.38-13.08,10.14-17.29c14.34-10.5,30.34-13.52,47.59-9.48c12.16,2.85,15.85,13.27,11.46,23.57
		c-5.09,11.93-14.29,19.66-26.41,23.67c-5.35,1.77-11.14,2.19-16.67,3.47c-1.55,0.36-3.44,1.21-4.24,2.45
		c-4.93,7.59-9.63,15.33-14.32,23.08c-0.94,1.55-1.44,3.37-2.26,5.01c-0.38,0.76-1.12,2-1.56,1.94c-0.95-0.12-2.47-0.82-2.58-1.49
		c-0.42-2.45-1.23-5.36-0.34-7.42c3.33-7.7,6.99-15.29,11.05-22.62c6.01-10.84,12.57-21.37,18.67-32.16
		c1.39-2.46,1.74-5.48,2.82-8.14c0.33-0.82,1.59-1.97,2.19-1.84c2.07,0.43,4.25,1.03,6.01,2.15c4.12,2.63,4.63,5.47,1.89,9.58
		c-5.21,7.8-10.53,15.53-15.8,23.29C187.17,419.41,186.62,420.28,185.74,421.64z"/>
	<path d="M238.93,416.7c3.64-3.03,7.1-6.31,10.95-9.03c4.89-3.45,10.32-3.04,14.03,0.34c2.15,1.95,2.22,3.64,0.15,5.71
		c-10.13,10.11-17.36,22.21-23.8,34.84c-0.1,0.19-0.26,0.38-0.27,0.58c-0.05,1.18-0.06,2.36-0.09,3.54c1.26-0.2,2.82,0,3.73-0.67
		c5.48-4.03,9.49-9.37,12.76-15.28c1.98-3.6,3.98-7.2,2.62-11.79c3.44,0,6.61,0,10.68,0c-1.78,3.01-3.16,5.48-4.67,7.86
		c-5,7.86-10.37,15.41-17.83,21.21c-3.48,2.7-7.35,3.95-11.79,3.15c-3.35-0.61-5.32-2.34-4.91-5.69c0.49-4.01,1.12-8.31,2.99-11.78
		c4.48-8.33,9.72-16.26,14.65-24.35c0.53-0.87,1.05-1.74,1.57-2.62c-0.28-0.24-0.57-0.48-0.85-0.72
		c-4.71,4.96-9.77,9.64-14.04,14.95c-5.12,6.36-9.71,13.17-14.27,19.96c-1.65,2.46-2.48,5.47-3.79,8.18
		c-0.42,0.88-1.19,1.59-1.8,2.37c-0.95-0.8-2.6-1.51-2.7-2.4c-0.26-2.28-0.42-4.88,0.43-6.92c3.05-7.35,6.1-14.75,9.93-21.7
		c10.03-18.21,20.49-36.19,30.73-54.29c0.73-1.29,1.57-2.83,1.49-4.2c-0.2-3.55,1.72-3.97,4.45-3.68c0.54,0.06,1.08,0.06,1.61,0.16
		c8.55,1.55,9.43,3.68,4.73,10.82c-9.06,13.74-18.04,27.53-27.05,41.3C238.69,416.58,238.81,416.64,238.93,416.7z"/>
	<path class="st1" d="M354.56,395.58c-7.17,3.83-14.33,7.66-21.82,11.67c0-3.83,1.08-6.42,4.22-8.12
		c15.24-8.28,30.42-16.66,45.63-24.98c0.9-0.49,1.86-0.86,3.56-1.63c-3.26,8.23-6.21,15.69-9.17,23.14
		c-6.55,16.49-13.17,32.96-19.62,49.49c-1.8,4.6-4.55,7.17-9.74,7.44c-3.82,0.2-7.59,1.45-11.39,2.13c-1,0.18-2.07-0.02-3.11-0.04
		c0.12-1.1-0.01-2.31,0.39-3.3c6.14-15.27,12.37-30.5,18.52-45.76c1.23-3.06,2.19-6.23,3.27-9.35
		C355.05,396.04,354.8,395.81,354.56,395.58z"/>
	<path d="M297.69,440.44c5.91,1.41,10.12-3.86,12.49-15.36c3.02,0,6.06,0,9.86,0c-3.18,5.55-6.47,10.26-10.85,14.04
		c-2.25,1.94-5.04,3.26-7.61,4.83c-0.45,0.27-1.08,0.59-1.52,0.48c-6.89-1.8-10.12,3.94-14.63,7.03c-4.29,2.94-8.67,5.69-14.15,5.69
		c-4.68,0-7.05-2.17-7.07-6.84c-0.03-8.24,2.79-15.71,7-22.6c4.73-7.72,9.66-15.38,17.69-20.27c3.57-2.17,7.25-3.08,11.4-1.46
		c1.44,0.56,3.17,0.44,4.78,0.48c5.09,0.13,8.08,3.29,6.79,8.23c-1.16,4.42-2.98,8.78-5.2,12.78c-2.29,4.12-5.42,7.76-8.17,11.62
		C298.2,439.5,297.97,439.95,297.69,440.44z M299.76,412.81c-0.16-0.16-0.33-0.33-0.49-0.49c-1.21,0.93-2.51,1.77-3.61,2.82
		c-7.41,7.05-13.51,15.15-18.52,24.03c-1.93,3.43-3.4,7.19-4.58,10.95c-0.85,2.7,0.51,3.88,3.11,2.7
		c7.55-3.43,13.91-8.25,15.08-17.16c0.89-6.79,3.23-12.93,6.57-18.79C298.1,415.49,298.95,414.16,299.76,412.81z"/>
</g>
</svg>
